<?xml version="1.0" standalone="no"?><!DOCTYPE svg PUBLIC "-//W3C//DTD SVG 1.1//EN" "http://www.w3.org/Graphics/SVG/1.1/DTD/svg11.dtd"><svg t="1589852528252" class="icon" viewBox="0 0 1024 1024" version="1.1" xmlns="http://www.w3.org/2000/svg" p-id="3165" xmlns:xlink="http://www.w3.org/1999/xlink" width="200" height="200"><defs><style type="text/css"></style></defs><path d="M1016.254836 40.7552a18.487855 18.487855 0 0 0-16.774981-2.550691l-330.100364 110.033455-311.370473-73.262546c-0.781964-0.186182-1.545309 0.074473-2.327273 0-1.992145-0.2048-3.984291-0.465455-5.976436-0.037236l-335.127273 74.472727A18.618182 18.618182 0 0 0 0 167.582255v800.581818a18.599564 18.599564 0 0 0 22.658327 18.189963l331.533964-73.672145 312.822691 55.202909a18.692655 18.692655 0 0 0 9.793163-0.930909c0.055855-0.018618 0.130327 0 0.186182-0.037236l335.127273-130.327273c7.168-2.811345 11.8784-9.700073 11.8784-17.370764v-763.345454a18.618182 18.618182 0 0 0-7.745164-15.117964zM37.236364 182.495418l297.890909-66.187636v762.433163L37.236364 944.9472V182.495418z m335.127272-65.889745l279.272728 65.703563v745.025164l-279.272728-49.263709V116.605673z m614.4 689.878109l-297.890909 115.842327V180.987345l297.890909-99.290763v724.7872z" fill="" p-id="3166"></path></svg>