<?xml version="1.0" standalone="no"?><!DOCTYPE svg PUBLIC "-//W3C//DTD SVG 1.1//EN" "http://www.w3.org/Graphics/SVG/1.1/DTD/svg11.dtd"><svg t="1589885423215" class="icon" viewBox="0 0 1024 1024" version="1.1" xmlns="http://www.w3.org/2000/svg" p-id="2679" xmlns:xlink="http://www.w3.org/1999/xlink" width="200" height="200"><defs><style type="text/css"></style></defs><path d="M485.3 69.6H155.7c-18.1 0-33 14.8-33 33v329.6c0 18.1 14.8 33 33 33h329.6c18.1 0 33-14.8 33-33V102.6c0-18.1-14.9-33-33-33zM287.5 366.3l33-98.9h-98.9l131.8-131.8-33 98.9h98.9L287.5 366.3z" fill="#3366CC" p-id="2680"></path><path d="M386.4 926.6V498.1H254.6v428.5h-98.9v33h329.6v-33z" fill="#CCCCCC" p-id="2681"></path><path d="M946.7 597s-57.2 12.1-98.9 33c-65.9 33-65.9 65.9-65.9 65.9H716V597l33-33h197.8v33zM320.5 465.2h33v98.9h-33z" fill="#3366CC" p-id="2682"></path><path d="M320.5 531.1c-91 0-164.8 81.2-164.8 181.3s73.8 181.3 164.8 181.3 164.8-81.2 164.8-181.3-73.8-181.3-164.8-181.3z m0 329.6c-72.8 0-131.8-66.4-131.8-148.3s59-148.3 131.8-148.3 131.8 66.4 131.8 148.3-59 148.3-131.8 148.3z" fill="#3366CC" p-id="2683"></path><path d="M716 662.9s-94.8 23.3-143.5 65.9-148.7 164.8-252 164.8v-33c99.9 0 167.1-111.9 230.5-159.6s165-71 165-71v32.9z" fill="#3366CC" p-id="2684"></path></svg>