<?xml version="1.0" standalone="no"?><!DOCTYPE svg PUBLIC "-//W3C//DTD SVG 1.1//EN" "http://www.w3.org/Graphics/SVG/1.1/DTD/svg11.dtd"><svg t="1569482399575" class="icon" viewBox="0 0 1024 1024" version="1.1" xmlns="http://www.w3.org/2000/svg" p-id="2654" width="32" height="32" xmlns:xlink="http://www.w3.org/1999/xlink"><defs><style type="text/css">@font-face { font-weight: 400; font-style: normal; font-family: Inter-Loom; src: url("https://cdn.loom.com/assets/fonts/inter/Inter-UI-Regular.woff2") format("woff2"); }
@font-face { font-weight: 400; font-style: italic; font-family: Inter-Loom; src: url("https://cdn.loom.com/assets/fonts/inter/Inter-UI-Italic.woff2") format("woff2"); }
@font-face { font-weight: 500; font-style: normal; font-family: Inter-Loom; src: url("https://cdn.loom.com/assets/fonts/inter/Inter-UI-Medium.woff2") format("woff2"); }
@font-face { font-weight: 500; font-style: italic; font-family: Inter-Loom; src: url("https://cdn.loom.com/assets/fonts/inter/Inter-UI-MediumItalic.woff2") format("woff2"); }
@font-face { font-weight: 700; font-style: normal; font-family: Inter-Loom; src: url("https://cdn.loom.com/assets/fonts/inter/Inter-UI-Bold.woff2") format("woff2"); }
@font-face { font-weight: 700; font-style: italic; font-family: Inter-Loom; src: url("https://cdn.loom.com/assets/fonts/inter/Inter-UI-BoldItalic.woff2") format("woff2"); }
@font-face { font-weight: 900; font-style: normal; font-family: Inter-Loom; src: url("https://cdn.loom.com/assets/fonts/inter/Inter-UI-Black.woff2") format("woff2"); }
@font-face { font-weight: 900; font-style: italic; font-family: Inter-Loom; src: url("https://cdn.loom.com/assets/fonts/inter/Inter-UI-BlackItalic.woff2") format("woff2"); }
</style></defs><path d="M511.999488 159.112857c-194.310497 0-351.854627 157.544129-351.854627 351.854627 0 194.33915 157.544129 351.854627 351.854627 351.854627 194.33915 0 351.85565-157.515477 351.85565-351.854627C863.854115 316.656987 706.338638 159.112857 511.999488 159.112857zM581.666174 733.168192c-7.573489 7.587815-18.898419 3.922333-18.898419 3.922333s-134.207631-22.850427-137.070842-23.336498c-1.25969-0.229221-5.068436-0.601704-7.988951-4.41045-4.380774-5.697769-2.448772-9.305947-2.448772-9.305947l45.456285-45.471634-76.797084-76.79606c-62.822814-62.851467 8.275477-136.01172 8.275477-136.01172-22.935362 22.936385 30.610158 93.117794 30.610158 93.117794l78.800717 78.800717 42.550095-42.550095c0 0 3.121084-2.63399 10.221806 1.546216 5.756097 3.378957 7.073092 8.762571 7.073092 8.762571l25.311479 136.01172C586.762239 717.448162 589.053422 725.779921 581.666174 733.168192zM631.860367 603.484597c22.936385-22.906709-30.580482-93.031836-30.580482-93.031836l-78.399581-78.399581-42.522466 42.521442c0 0-3.406586 3.464915-9.076726-0.229221-5.26798-3.436262-8.53335-10.393721-8.53335-10.393721l-25.28385-135.89711c0 0-2.290159-8.332782 5.097088-15.72003 7.559163-7.559163 18.898419-3.894703 18.898419-3.894703s134.064368 22.821775 136.928602 23.307845c0 0 6.500041 1.116427 9.592472 5.955642 3.693112 5.783727 1.14508 8.074909 1.14508 8.074909l-45.414329 45.413306 76.4246 76.4246C702.902376 530.381649 631.860367 603.484597 631.860367 603.484597z" p-id="2655" fill="#1296db"></path></svg>