<?xml version="1.0" standalone="no"?><!DOCTYPE svg PUBLIC "-//W3C//DTD SVG 1.1//EN" "http://www.w3.org/Graphics/SVG/1.1/DTD/svg11.dtd"><svg t="1557222705543" class="icon" style="" viewBox="0 0 1024 1024" version="1.1" xmlns="http://www.w3.org/2000/svg" p-id="1716" xmlns:xlink="http://www.w3.org/1999/xlink" width="48" height="48"><defs><style type="text/css"></style></defs><path d="M629.9648 713.4208c33.3824 0 60.3136-27.4432 60.3136-61.3376V248.9344l24.9856 25.3952c23.552 23.9616 61.7472 23.9616 85.2992 0s23.552-62.7712 0-86.7328L673.9968 58.9824c-11.0592-12.1856-26.5216-20.1728-44.032-20.1728-25.3952 0-47.0016 16.1792-55.808 38.912-0.512 1.2288-0.4096 2.6624-0.8192 3.8912-1.8432 5.9392-3.6864 11.9808-3.6864 18.5344v551.8336c0 33.9968 26.9312 61.44 60.3136 61.44zM350.0032 693.248c11.0592 12.1856 26.5216 20.0704 44.032 20.0704 25.4976 0 47.0016-16.1792 55.808-38.912 0.512-1.2288 0.3072-2.6624 0.8192-3.8912 1.8432-6.0416 3.6864-11.9808 3.6864-18.5344V100.2496c0-33.8944-26.9312-61.3376-60.3136-61.3376s-60.3136 27.4432-60.3136 61.3376v403.1488l-24.9856-25.3952c-23.552-23.9616-61.7472-23.9616-85.2992 0s-23.552 62.7712 0 86.7328L350.0032 693.248z m0 0" p-id="1717" fill="#009AE7"></path><path d="M1018.7776 684.4416c0-30.5152-24.3712-55.1936-54.272-55.1936-30.0032 0-54.272 24.6784-54.272 55.1936l0.1024 190.1568-790.4256-0.1024-6.0416 0.1024V684.4416c0-30.5152-24.2688-55.1936-54.272-55.1936s-54.272 24.6784-54.272 55.1936l-0.1024 199.4752c-0.3072 30.8224-0.512 57.4464 21.0944 79.5648 21.7088 22.016 48.128 22.1184 78.2336 21.504l15.36-0.1024 799.5392 0.1024c3.3792 0.1024 6.656 0.1024 9.9328 0.1024 26.112 0 49.0496-1.9456 68.3008-21.6064 21.7088-22.016 21.4016-48.64 21.1968-79.5648l-0.1024-199.4752z m0 0" p-id="1718" fill="#009AE7"></path></svg>