<?xml version="1.0" standalone="no"?><!DOCTYPE svg PUBLIC "-//W3C//DTD SVG 1.1//EN" "http://www.w3.org/Graphics/SVG/1.1/DTD/svg11.dtd"><svg t="1557222735522" class="icon" style="" viewBox="0 0 1024 1024" version="1.1" xmlns="http://www.w3.org/2000/svg" p-id="2001" xmlns:xlink="http://www.w3.org/1999/xlink" width="48" height="48"><defs><style type="text/css"></style></defs><path d="M96.48355555 433.03822222v557.28355556c0 15.81511111 12.74311111 28.55822222 28.55822223 28.55822222h253.61066667c15.81511111 0 28.55822222-12.85688889 28.55822222-28.55822222V683.69066667c0-15.81511111 12.74311111-28.55822222 28.55822222-28.55822222h191.71555556c15.81511111 0 28.55822222 12.85688889 28.55822222 28.55822222v306.63111111c0 15.81511111 12.74311111 28.55822222 28.55822222 28.55822222h245.41866666c15.81511111 0 28.55822222-12.85688889 28.55822223-28.55822222V433.03822222c0-7.62311111-2.95822222-14.90488889-8.30577778-20.25244444L549.20533333 11.37777778c-11.15022222-11.15022222-29.12711111-11.15022222-40.27733333-0.11377778L104.90311111 412.78577778c-5.34755555 5.34755555-8.41955555 12.62933333-8.41955556 20.25244444z" fill="#009AE7" p-id="2002"></path></svg>