<?xml version="1.0" standalone="no"?><!DOCTYPE svg PUBLIC "-//W3C//DTD SVG 1.1//EN" "http://www.w3.org/Graphics/SVG/1.1/DTD/svg11.dtd"><svg t="1557222723179" class="icon" style="" viewBox="0 0 1024 1024" version="1.1" xmlns="http://www.w3.org/2000/svg" p-id="1859" xmlns:xlink="http://www.w3.org/1999/xlink" width="48" height="48"><defs><style type="text/css"></style></defs><path d="M750.592 46.08C602.624 46.08 481.28 166.912 481.28 314.88c0 113.664 73.728 240.64 135.168 327.168 49.152 69.12 97.792 122.88 122.368 149.504 3.072 3.072 7.168 4.608 11.264 4.608 4.096 0 8.192-1.536 11.264-4.608 24.576-26.112 73.728-80.896 122.368-149.504 61.44-86.528 135.168-213.504 135.168-327.168 1.024-147.968-119.808-268.8-268.288-268.8z m0 429.056c-90.624 0-163.84-73.728-163.84-163.84s73.728-163.84 163.84-163.84c90.624 0 164.352 73.728 164.352 163.84s-73.216 163.84-164.352 163.84z m-262.144 242.688l-405.504-44.544 57.856-199.68c3.584-11.776 13.824-19.968 26.112-19.968h301.568c13.824 38.4 32.256 76.8 52.224 111.616l-32.256 152.576zM434.176 977.92H31.232c-8.704 0-16.384-4.096-21.504-10.752s-7.168-15.872-4.096-24.064L60.416 752.64l411.648 45.056c0 0.512-37.888 180.224-37.888 180.224z m498.176-332.8l36.352 125.952-121.856-13.312c21.504-25.6 46.08-56.832 70.656-91.136 4.608-7.68 10.24-14.848 14.848-21.504z m60.928 209.92l25.088 86.528c1.024 3.072 1.536 5.632 1.536 9.216 0 15.36-12.288 27.136-27.136 27.136h-475.136l35.84-171.008L993.28 855.04z" fill="#009AE7" p-id="1860"></path></svg>