<?xml version="1.0" standalone="no"?><!DOCTYPE svg PUBLIC "-//W3C//DTD SVG 1.1//EN" "http://www.w3.org/Graphics/SVG/1.1/DTD/svg11.dtd"><svg t="1557222693062" class="icon" style="" viewBox="0 0 1024 1024" version="1.1" xmlns="http://www.w3.org/2000/svg" p-id="1574" xmlns:xlink="http://www.w3.org/1999/xlink" width="48" height="48"><defs><style type="text/css"></style></defs><path d="M892.2640625 349.02125c0-27.568125-9.6609375-50.9953125-28.9884375-70.273125-19.321875-19.2778125-42.744375-28.9396875-70.275-28.98375h-33.0871875V448.2875h33.0871875c27.5746875 0 50.99625-9.661875 70.275-28.989375 19.2825-19.32375 28.944375-42.74625 28.9884375-70.276875zM32.0009375 746.0646875h926.4346875c0 36.52875-12.92625 67.7165625-38.7778125 93.571875-25.8515625 25.8515625-57.0403125 38.776875-93.5690625 38.776875H164.346875c-36.5240625 0-67.7165625-12.9253125-93.568125-38.776875C44.9271875 813.78125 32.0009375 782.5934375 32.0009375 746.0646875z m959.521875-397.0434375c0 54.793125-19.3884375 101.58-58.16625 140.356875-38.776875 38.7778125-85.5646875 58.164375-140.3559375 58.164375h-33.0871875v16.543125c0 31.7184375-11.3803125 58.9396875-34.14375 81.66s-49.9846875 34.1015625-81.66 34.145625H280.1553125c-31.723125 0-58.940625-11.3821875-81.6590625-34.145625-22.7203125-22.7634375-34.104375-49.9828125-34.149375-81.66V183.588125c0-8.955 3.2653125-16.7203125 9.795-23.293125 6.52875-6.57375 14.295-9.8390625 23.293125-9.795h595.565625c54.79125 0 101.5790625 19.389375 140.3559375 58.1671875 38.7778125 38.776875 58.16625 85.56375 58.16625 140.3540625z m0 0" p-id="1575" fill="#009AE7"></path></svg>