<?xml version="1.0" standalone="no"?><!DOCTYPE svg PUBLIC "-//W3C//DTD SVG 1.1//EN" "http://www.w3.org/Graphics/SVG/1.1/DTD/svg11.dtd"><svg t="1557226023658" class="icon" style="" viewBox="0 0 1024 1024" version="1.1" xmlns="http://www.w3.org/2000/svg" p-id="1425" xmlns:xlink="http://www.w3.org/1999/xlink" width="48" height="48"><defs><style type="text/css"></style></defs><path d="M46.435109 394.463614H977.976716a43.350032 43.350032 0 0 0 43.350032-43.350032l-0.007225-0.093925a43.306682 43.306682 0 0 0-18.445438-36.298426L654.90338 70.508827a43.350032 43.350032 0 0 0-49.794737 70.964002l236.936824 166.290721H46.435109a43.350032 43.350032 0 0 0 0 86.700064zM977.976716 600.022239H46.435109a43.350032 43.350032 0 0 0-43.350032 43.350032l0.007225 0.07225a43.306682 43.306682 0 0 0 18.445439 36.312877l347.985155 244.212404a43.313907 43.313907 0 0 0 60.386594-10.584633 43.342807 43.342807 0 0 0-10.577408-60.379369L182.380809 686.722303H977.976716a43.350032 43.350032 0 0 0 0-86.700064z" fill="#009AE7" p-id="1426" ></path></svg>
