<?xml version="1.0" standalone="no"?><!DOCTYPE svg PUBLIC "-//W3C//DTD SVG 1.1//EN" "http://www.w3.org/Graphics/SVG/1.1/DTD/svg11.dtd"><svg t="1574240465391" class="icon" viewBox="0 0 1024 1024" version="1.1" xmlns="http://www.w3.org/2000/svg" p-id="3320" xmlns:xlink="http://www.w3.org/1999/xlink" width="200" height="200"><defs><style type="text/css"></style></defs><path d="M85.952 755.296c-11.456 0-22.88-6.368-28.64-17.792a546.624 546.624 0 0 1-27.968-69.312c-5.728-16.544 3.808-34.368 20.352-40.096 16.544-5.728 34.336 3.808 40.064 20.352 6.976 20.384 15.264 41.344 24.768 60.48 7.648 15.84 1.28 34.912-13.984 42.592a33.76 33.76 0 0 1-14.592 3.776z" p-id="3321"></path><path d="M512.64 1019.808c-71.2 0-140.512-14.656-205.376-43.264-62.272-27.968-118.272-66.784-165.312-116.96a32.096 32.096 0 0 1 1.248-45.184 32.096 32.096 0 0 1 45.184 1.312 443.008 443.008 0 0 0 144.32 102.336 434.08 434.08 0 0 0 179.328 38.144c118.944 0 230.176-46.432 314.784-130.4a442.4 442.4 0 0 0 130.304-314.72c0-118.912-46.4-230.176-130.304-314.72a444.096 444.096 0 0 0-314.144-129.728c-118.912 0-230.176 46.4-314.752 130.336a442.368 442.368 0 0 0-130.4 314.784 31.52 31.52 0 0 1-31.808 31.808 31.52 31.52 0 0 1-31.808-31.808c0-68.672 13.344-135.456 40.032-197.76a506.88 506.88 0 0 1 108.736-161.536 506.56 506.56 0 0 1 161.504-108.736 502.304 502.304 0 0 1 197.76-40.032c68.672 0 135.424 13.344 197.76 40.032a505.376 505.376 0 0 1 161.472 108.736 506.016 506.016 0 0 1 108.8 161.536 502.112 502.112 0 0 1 40.064 197.76c0 68.672-13.376 135.456-40.064 197.728a505.28 505.28 0 0 1-108.8 161.536 504.864 504.864 0 0 1-161.472 108.736 496.544 496.544 0 0 1-197.056 40.064z" p-id="3322"></path><path d="M367.008 761.632a28.704 28.704 0 0 1-15.904-4.416 32.032 32.032 0 0 1-15.872-27.36V292.96a31.744 31.744 0 0 1 47.68-27.328l378.368 218.752c9.536 5.728 15.904 15.904 15.904 27.328s-6.368 21.6-15.904 27.328l-378.368 218.688a31.584 31.584 0 0 1-15.904 3.904z" p-id="3323"></path></svg>