<?xml version="1.0" encoding="utf-8"?>
<!-- Generator: Adobe Illustrator 23.0.3, SVG Export Plug-In . SVG Version: 6.00 Build 0)  -->
<svg version="1.1" id="图层_1" xmlns="http://www.w3.org/2000/svg" xmlns:xlink="http://www.w3.org/1999/xlink" x="0px" y="0px"
	 viewBox="0 0 64 64" style="enable-background:new 0 0 64 64;" xml:space="preserve">
<path d="M56.5,7.5H7.5c-3,0-5.5,2.5-5.5,5.5v32.7c0,3,2.5,5.5,5.5,5.5h13.6v5.5h21.8v-5.5h13.6c3,0,5.4-2.5,5.4-5.5l0-32.7
	C62,9.9,59.5,7.5,56.5,7.5z M56.5,45.6H7.5V12.9h49.1V45.6z M51.1,21.1h-30v5.5h30V21.1z M51.1,32h-30v5.5h30V32z M18.4,21.1h-5.5
	v5.5h5.5V21.1z M18.4,32h-5.5v5.5h5.5V32z"/>
</svg>
