<?xml version="1.0" encoding="utf-8"?>
<!-- Generator: Adobe Illustrator 23.0.3, SVG Export Plug-In . SVG Version: 6.00 Build 0)  -->
<svg version="1.1" id="图层_1" xmlns="http://www.w3.org/2000/svg" xmlns:xlink="http://www.w3.org/1999/xlink" x="0px" y="0px"
	 viewBox="0 0 28.35 28.35" style="enable-background:new 0 0 28.35 28.35;" xml:space="preserve">
<style type="text/css">
	.st0{fill-rule:evenodd;clip-rule:evenodd;fill:#EAC800;}
	.st1{fill:#FFFFFF;}
	.st2{fill:#EAC800;}
	.st3{fill-rule:evenodd;clip-rule:evenodd;fill:#58C13A;}
	.st4{fill:#58C13A;}
	.st5{fill-rule:evenodd;clip-rule:evenodd;fill:#FF0600;}
	.st6{fill:#FF0600;}
	.st7{fill:#3993FF;}
	.st8{fill-rule:evenodd;clip-rule:evenodd;fill:#3993FF;}
</style>
<g>
	<g id="Oval-5_3_">
		<circle class="st3" cx="14.17" cy="14.17" r="14.17"/>
	</g>
	<path class="st1" d="M12.17,20.3c-0.38,0-0.74-0.15-1.01-0.41l-5.38-5.38c-0.56-0.55-0.56-1.46,0-2.02
		c0.27-0.27,0.63-0.42,1.01-0.42c0.38,0,0.74,0.15,1.01,0.41l4.36,4.36l8.4-8.4c0.27-0.27,0.63-0.42,1.01-0.42s0.74,0.15,1.01,0.42
		c0.55,0.55,0.55,1.46,0,2.01l-9.3,9.3C12.91,20.16,12.55,20.3,12.17,20.3z"/>
</g>
</svg>
